<svg width="502" height="512" viewBox="0 0 502 512" fill="none" xmlns="http://www.w3.org/2000/svg">
<path d="M117.517 235.145C182.319 235.145 235.037 182.403 235.037 117.576C235.037 52.7475 182.319 0.00335693 117.517 0.00335693C52.7165 0.00335693 0 52.7475 0 117.576C0 182.403 52.7165 235.145 117.517 235.145Z" fill="white"/>
<path d="M500.908 120.933C500.938 117.678 500.96 120.207 500.96 117.574C500.96 52.7442 448.242 0 383.442 0C318.64 0 265.922 52.7442 265.922 117.574V117.576C265.922 199.44 199.35 266.041 117.52 266.041C85.4445 266.041 55.8624 256.109 31.6914 239.088C55.2218 281.161 90.546 315.829 133.035 338.611V391.952C133.035 456.681 184.7 510.389 249.396 511.015C314.728 511.646 368.079 458.662 368.079 393.452V338.554C445.885 296.771 499.575 215.038 500.913 121.214H500.903L500.908 120.933Z" fill="white"/>
</svg>
