<svg width="512" height="137" viewBox="0 0 512 137" fill="none" xmlns="http://www.w3.org/2000/svg">
<g clip-path="url(#clip0_932_619)">
<mask id="mask0_932_619" style="mask-type:luminance" maskUnits="userSpaceOnUse" x="0" y="0" width="512" height="137">
<path d="M512 0H0V137H512V0Z" fill="white"/>
</mask>
<g mask="url(#mask0_932_619)">
<path d="M25.0385 0.000854492C11.2323 0.000854492 0 11.2419 0 25.0595C0 38.8756 11.2323 50.1174 25.0385 50.1174C38.8455 50.1174 50.077 38.8756 50.077 25.0595C50.077 11.2419 38.8455 0.000854492 25.0385 0.000854492Z" fill="#0B23A9"/>
<path d="M53.366 78.4677C44.3464 78.4677 35.8243 76.1829 28.3438 72.1696V83.5383C28.3438 97.3343 39.351 108.781 53.1355 108.914C67.0546 109.049 78.4215 97.7569 78.4215 83.858V72.1595C70.9333 76.1821 62.3971 78.4677 53.366 78.4677Z" fill="#0B23A9"/>
<path d="M56.6424 25.0616C56.617 42.4935 42.4772 56.6497 24.9967 56.6916C18.2534 56.7087 11.9256 54.6076 6.76172 50.9399C15.9145 67.3128 33.3786 78.4772 53.3474 78.4392C82.3554 78.4633 106.291 54.8289 106.773 25.8406L106.704 25.7786C106.733 25.0563 106.698 25.6479 106.733 25.0563C106.746 11.2291 95.4963 -0.0563458 81.7483 -0.0087612C67.8698 0.0455011 56.6558 11.2344 56.6424 25.0616Z" fill="url(#paint0_linear_932_619)"/>
<path d="M171.466 63.3506C171.466 77.5134 161.259 83.365 150.865 83.365C140.424 83.365 130.262 77.5134 130.262 63.3506V37.7184H140.007V62.4682C140.007 71.059 144.786 74.2169 150.865 74.2169C156.943 74.2169 161.722 71.059 161.722 62.4682V37.7184H171.466V63.3506Z" fill="#0B23A9"/>
<path d="M190.765 22.7653H180.742V82.204H190.765V22.7653Z" fill="#0B23A9"/>
<path d="M221.181 45.4261H209.674V67.7153C209.674 73.6589 213.572 73.5668 221.181 73.1953V82.204C205.869 84.0608 199.652 79.8819 199.652 67.7153V22.7653H209.674V35.7679H221.181V45.4261Z" fill="#0B23A9"/>
<path d="M321.414 22.7653H311.391V82.204H321.414V22.7653Z" fill="#0B23A9"/>
<path d="M400.507 45.4261H388.999V67.7153C388.999 73.6589 392.897 73.5668 400.507 73.1953V82.204C385.195 84.0608 378.977 79.8819 378.977 67.7153V22.7653H388.999V35.7679H400.507V45.4261Z" fill="#0B23A9"/>
<path d="M407.884 40.9065H417.907V82.2039H407.884V40.9065ZM408.348 32.0828C405.842 29.4828 405.842 25.5818 408.348 23.0748C410.854 20.4741 414.937 20.4741 417.443 23.0748C419.949 25.5818 419.949 29.4828 417.351 32.0828C414.845 34.5905 410.947 34.5905 408.348 32.0828Z" fill="#0B23A9"/>
<path d="M363.141 35.7679H373.813L355.995 83.69C350.561 98.0355 346.438 100.778 333.263 100.778L333.352 91.3984C339.663 91.7691 343.189 88.7048 345.694 82.2968L346.158 81.3672L326.484 35.7679H337.435L351.262 69.4799L363.141 35.7679Z" fill="#0B23A9"/>
<path d="M432.136 76.3532C427.496 71.6162 425.176 65.8583 425.176 58.9859C425.176 52.0206 427.496 46.2619 432.136 41.6186C436.869 36.8825 442.716 34.5604 449.676 34.5604C458.677 34.5604 466.658 39.2045 470.371 46.5406L461.739 51.5562C459.606 47.0986 455.151 44.4051 449.583 44.4051C445.499 44.4051 442.066 45.7983 439.283 48.584C436.591 51.3696 435.199 54.807 435.199 58.9859C435.199 63.1648 436.591 66.6014 439.283 69.3878C442.066 72.1735 445.499 73.5667 449.583 73.5667C455.058 73.5667 459.698 70.7803 461.926 66.4156L470.556 71.3376C466.565 78.7681 458.677 83.4114 449.676 83.4114C442.716 83.4114 436.869 81.0893 432.136 76.3532Z" fill="#0B23A9"/>
<path d="M495.365 54.6205C502.51 56.1995 511.791 59.1717 511.605 69.1092C511.605 73.5667 509.842 77.0962 506.408 79.6032C502.975 82.1103 498.706 83.4114 493.509 83.4114C484.322 83.4114 477.547 79.3246 474.578 72.545L483.208 67.5294C484.786 71.9877 488.219 74.2169 493.509 74.2169C498.799 74.2169 501.398 72.4521 501.398 69.0155C501.398 66.0441 497.5 64.2794 492.581 63.0719C485.621 61.3072 476.248 58.5215 476.434 48.7697C476.434 44.4972 478.012 41.0613 481.259 38.4614C484.507 35.8608 488.591 34.5604 493.416 34.5604C501.118 34.5604 507.337 38.1828 510.584 44.2185L502.139 48.9555C500.561 45.426 497.592 43.662 493.416 43.662C489.611 43.662 486.642 45.3339 486.642 48.584C486.642 51.6483 490.54 53.228 495.365 54.6205Z" fill="#0B23A9"/>
<path d="M279.189 73.8454C283.365 73.8454 286.891 72.4522 289.676 69.6665C292.459 66.7864 293.851 63.2577 293.851 58.9859C293.851 54.7134 292.459 51.1839 289.676 48.3982C286.891 45.5189 283.365 44.1264 279.189 44.1264C275.013 44.1264 271.487 45.5189 268.702 48.3982C265.919 51.1839 264.527 54.7134 264.527 58.9859C264.527 63.2577 265.919 66.7864 268.702 69.6665C271.487 72.4522 275.013 73.8454 279.189 73.8454ZM293.851 35.7679H303.874V82.2039H293.851V75.5173C290.047 80.8107 284.664 83.4106 277.611 83.4106C271.208 83.4106 265.826 81.0886 261.278 76.3532C256.731 71.6162 254.504 65.7647 254.504 58.9859C254.504 52.1135 256.731 46.3548 261.278 41.6187C265.826 36.8817 271.208 34.5597 277.611 34.5597C284.664 34.5597 290.047 37.1611 293.851 42.3617V35.7679Z" fill="#0B23A9"/>
<path d="M238.307 44.186C240.747 38.579 245.446 35.7748 252.225 35.7748V46.3571C248.519 46.0854 245.266 46.9894 242.464 49.07C239.663 51.0592 238.307 54.4052 238.307 59.0183V81.8091H228.547V36.589H238.307V44.186Z" fill="#0B23A9"/>
<path d="M155.596 104.451L144.713 123.827V136.216H138.502V123.827L127.664 104.451H134.738L141.63 117.702L148.523 104.451H155.596Z" fill="#00A2F3"/>
<path d="M177.679 130.725C180.581 130.725 183.03 129.772 184.979 127.821C186.93 125.87 187.926 123.374 187.926 120.333C187.926 117.293 186.93 114.797 184.979 112.846C183.03 110.894 180.581 109.896 177.679 109.896C174.777 109.896 172.329 110.894 170.378 112.846C168.428 114.797 167.431 117.293 167.431 120.333C167.431 123.374 168.428 125.87 170.378 127.821C172.329 129.772 174.777 130.725 177.679 130.725ZM177.679 136.851C173.099 136.851 169.199 135.263 165.98 132.087C162.806 128.865 161.219 124.962 161.219 120.333C161.219 115.705 162.806 111.802 165.98 108.626C169.199 105.404 173.099 103.816 177.679 103.816C182.259 103.816 186.158 105.404 189.377 108.626C192.598 111.802 194.185 115.705 194.185 120.333C194.185 124.962 192.598 128.865 189.377 132.087C186.158 135.263 182.259 136.851 177.679 136.851Z" fill="#00A2F3"/>
<path d="M211.184 130.227H223.291V136.217H204.926V104.451H211.184V130.227Z" fill="#00A2F3"/>
<path d="M246.231 130.725C249.133 130.725 251.581 129.772 253.531 127.821C255.48 125.87 256.478 123.374 256.478 120.333C256.478 117.293 255.48 114.797 253.531 112.846C251.581 110.894 249.133 109.896 246.231 109.896C243.329 109.896 240.881 110.894 238.93 112.846C236.98 114.797 235.983 117.293 235.983 120.333C235.983 123.374 236.98 125.87 238.93 127.821C240.881 129.772 243.329 130.725 246.231 130.725ZM246.231 136.851C241.651 136.851 237.751 135.263 234.532 132.087C231.357 128.865 229.77 124.962 229.77 120.333C229.77 115.705 231.357 111.802 234.532 108.626C237.751 105.404 241.651 103.816 246.231 103.816C250.81 103.816 254.71 105.404 257.929 108.626C261.149 111.802 262.736 115.705 262.736 120.333C262.736 124.962 261.149 128.865 257.929 132.087C254.71 135.263 250.81 136.851 246.231 136.851Z" fill="#00A2F3"/>
<path d="M274.59 110.694V105H285.227V137.175H278.871V110.694H274.59Z" fill="#00A2F3"/>
<path d="M292.863 110.694V105H303.5V137.175H297.144V110.694H292.863Z" fill="#00A2F3"/>
</g>
</g>
<defs>
<linearGradient id="paint0_linear_932_619" x1="30.2851" y1="77.5527" x2="92.3039" y2="8.90401" gradientUnits="userSpaceOnUse">
<stop stop-color="#00DEF3"/>
<stop offset="1" stop-color="#0B23A9"/>
</linearGradient>
<clipPath id="clip0_932_619">
<rect width="512" height="137" fill="white"/>
</clipPath>
</defs>
</svg>
