<svg width="502" height="512" viewBox="0 0 502 512" fill="none" xmlns="http://www.w3.org/2000/svg">
<g clip-path="url(#clip0_15_46)">
<path d="M0.0536434 390.417V390.136H0.0486234C1.91941 259.005 106.014 151.512 235.356 143.511V117.668C235.356 52.7879 182.569 0 117.679 0C52.7887 0 0.00177002 52.7879 0.00177002 117.668V393.78C0.00177002 391.143 0.0185034 393.674 0.0536434 390.417Z" fill="#0B23A9"/>
<path d="M383.966 511.45C448.853 511.45 501.644 458.662 501.644 393.777C501.644 328.897 448.853 276.109 383.966 276.109C319.076 276.109 266.288 328.897 266.288 393.777C266.288 458.662 319.076 511.45 383.966 511.45Z" fill="#0B23A9"/>
<path d="M-0.187712 390.116L0.134914 390.408C0.000589102 393.799 0.166284 391.021 0.000575393 393.799C-0.0647518 458.73 52.8056 511.723 117.419 511.497C182.645 511.24 235.352 458.696 235.417 393.766C235.54 311.908 301.997 245.43 384.152 245.23C415.845 245.149 445.584 255.014 469.853 272.236C426.839 195.353 344.763 142.929 250.913 143.111C114.581 143.003 2.08458 253.992 -0.187712 390.116Z" fill="url(#paint0_linear_15_46)"/>
</g>
<defs>
<linearGradient id="paint0_linear_15_46" x1="359.304" y1="147.273" x2="68.0872" y2="469.895" gradientUnits="userSpaceOnUse">
<stop stop-color="#00DEF3"/>
<stop offset="1" stop-color="#0B23A9"/>
</linearGradient>
<clipPath id="clip0_15_46">
<rect width="502" height="512" fill="white"/>
</clipPath>
</defs>
</svg>
