<svg width="502" height="512" viewBox="0 0 502 512" fill="none" xmlns="http://www.w3.org/2000/svg">
<g clip-path="url(#clip0_15_50)">
<path d="M383.965 276.11C319.074 276.11 266.286 328.898 266.286 393.778C266.286 458.663 319.074 511.451 383.965 511.451C448.852 511.451 501.642 458.663 501.642 393.778C501.642 328.898 448.852 276.11 383.965 276.11Z" fill="white"/>
<path d="M383.962 245.186C416.082 245.186 445.705 255.127 469.908 272.163C426.873 195.254 344.509 142.98 250.824 142.98C245.628 142.98 240.481 143.194 235.359 143.511V117.668C235.359 52.7879 182.572 0 117.682 0C52.7913 0 0.00434519 52.7879 0.00434519 117.668V392.885C0.00434519 393.089 0.00268555 393.348 0.00268555 393.78C0.00268555 458.665 52.793 511.453 117.68 511.453C182.548 511.453 235.324 458.698 235.357 393.843H235.359V393.778C235.359 311.843 302.023 245.186 383.962 245.186Z" fill="white"/>
</g>
<defs>
<clipPath id="clip0_15_50">
<rect width="502" height="512" fill="white"/>
</clipPath>
</defs>
</svg>
