<svg width="512" height="137" viewBox="0 0 512 137" fill="none" xmlns="http://www.w3.org/2000/svg">
<g clip-path="url(#clip0_29_337)">
<path d="M25.04 0.000976562C11.2338 0.000976562 0.00148739 11.2419 0.00148739 25.0596C0.00148739 38.8757 11.2338 50.1174 25.04 50.1174C38.847 50.1174 50.0785 38.8757 50.0785 25.0596C50.0785 11.2419 38.847 0.000976562 25.04 0.000976562Z" fill="white"/>
<path d="M106.725 25.7756C106.731 25.082 106.736 25.6208 106.736 25.0596C106.736 11.2419 95.5034 0.000976562 81.6972 0.000976562C67.891 0.000976562 56.6587 11.2419 56.6587 25.0596C56.6587 42.5081 42.4743 56.7027 25.04 56.7027C18.2061 56.7027 11.9036 54.5858 6.75342 50.958C11.7667 59.9257 19.2928 67.3144 28.3456 72.1698V83.5385C28.3456 97.3344 39.3536 108.781 53.1381 108.914C67.0573 109.049 78.4241 97.7571 78.4241 83.8581V72.159C77.7954 72.4972 77.1573 72.8176 76.5146 73.1303C94.1159 64.5659 106.43 46.591 106.726 25.8352H106.724L106.725 25.7756Z" fill="white"/>
<path d="M171.467 63.3507C171.467 77.5135 161.259 83.365 150.865 83.365C140.425 83.365 130.263 77.5135 130.263 63.3507V37.7185H140.007V62.4683C140.007 71.059 144.787 74.217 150.865 74.217C156.944 74.217 161.722 71.059 161.722 62.4683V37.7185H171.467V63.3507Z" fill="white"/>
<path d="M190.767 22.7654H180.745V82.2033H190.767V22.7654Z" fill="white"/>
<path d="M221.184 45.4261H209.676V67.7153C209.676 73.6589 213.574 73.5668 221.184 73.1953V82.204C205.872 84.0609 199.654 79.882 199.654 67.7153V22.7654H209.676V35.768H221.184V45.4261Z" fill="white"/>
<path d="M321.415 22.7654H311.392V82.2033H321.415V22.7654Z" fill="white"/>
<path d="M400.505 45.4261H388.997V67.7153C388.997 73.6589 392.895 73.5668 400.505 73.1953V82.204C385.193 84.0609 378.975 79.882 378.975 67.7153V22.7654H388.997V35.768H400.505V45.4261Z" fill="white"/>
<path d="M407.883 40.9058H417.906V82.2032H407.883V40.9058ZM408.347 32.0828C405.841 29.4829 405.841 25.5811 408.347 23.0749C410.853 20.4734 414.936 20.4734 417.442 23.0749C419.948 25.5811 419.948 29.4829 417.349 32.0828C414.844 34.5906 410.946 34.5906 408.347 32.0828Z" fill="white"/>
<path d="M363.141 35.7678H373.813L355.995 83.69C350.561 98.0355 346.438 100.778 333.263 100.778L333.352 91.3983C339.663 91.7691 343.189 88.7048 345.694 82.2967L346.158 81.3671L326.485 35.7678H337.435L351.263 69.4799L363.141 35.7678Z" fill="white"/>
<path d="M432.137 76.3526C427.497 71.6156 425.177 65.8577 425.177 58.9853C425.177 52.02 427.497 46.2613 432.137 41.618C436.87 36.8818 442.717 34.5598 449.677 34.5598C458.678 34.5598 466.659 39.2039 470.372 46.54L461.74 51.5556C459.606 47.098 455.152 44.4045 449.584 44.4045C445.5 44.4045 442.067 45.7969 439.283 48.5834C436.591 51.369 435.2 54.8064 435.2 58.9853C435.2 63.1642 436.591 66.6008 439.283 69.3872C442.067 72.1729 445.5 73.5661 449.584 73.5661C455.059 73.5661 459.699 70.7797 461.926 66.415L470.557 71.337C466.566 78.7667 458.678 83.4108 449.677 83.4108C442.717 83.4108 436.87 81.0887 432.137 76.3526Z" fill="white"/>
<path d="M495.372 54.6206C502.517 56.1996 511.797 59.1718 511.612 69.1093C511.612 73.5668 509.849 77.0963 506.415 79.6034C502.981 82.1112 498.713 83.4115 493.516 83.4115C484.329 83.4115 477.554 79.3255 474.585 72.5451L483.215 67.5303C484.793 71.9879 488.226 74.217 493.516 74.217C498.806 74.217 501.404 72.4523 501.404 69.0157C501.404 66.0442 497.506 64.2795 492.588 63.072C485.627 61.3073 476.255 58.5216 476.441 48.7698C476.441 44.4973 478.019 41.0615 481.266 38.4616C484.514 35.8609 488.597 34.5605 493.423 34.5605C501.125 34.5605 507.343 38.1829 510.591 44.2187L502.146 48.9556C500.568 45.4261 497.599 43.6621 493.423 43.6621C489.618 43.6621 486.648 45.334 486.648 48.5841C486.648 51.6484 490.546 53.2282 495.372 54.6206Z" fill="white"/>
<path d="M279.192 73.8455C283.367 73.8455 286.894 72.4523 289.678 69.6666C292.462 66.7866 293.854 63.2578 293.854 58.9861C293.854 54.7135 292.462 51.184 289.678 48.3984C286.894 45.519 283.367 44.1266 279.192 44.1266C275.016 44.1266 271.489 45.519 268.705 48.3984C265.921 51.184 264.529 54.7135 264.529 58.9861C264.529 63.2578 265.921 66.7866 268.705 69.6666C271.489 72.4523 275.016 73.8455 279.192 73.8455ZM293.854 35.768H303.877V82.2041H293.854V75.5174C290.05 80.8109 284.667 83.4108 277.614 83.4108C271.211 83.4108 265.829 81.0887 261.281 76.3533C256.734 71.6164 254.507 65.7649 254.507 58.9861C254.507 52.1136 256.734 46.355 261.281 41.6188C265.829 36.8818 271.211 34.5598 277.614 34.5598C284.667 34.5598 290.05 37.1613 293.854 42.3618V35.768Z" fill="white"/>
<path d="M238.31 44.1854C240.75 38.5784 245.449 35.7742 252.227 35.7742V46.3565C248.522 46.0848 245.269 46.9888 242.467 49.0694C239.666 51.0586 238.31 54.4046 238.31 59.0177V81.8085H228.55V36.5884H238.31V44.1854Z" fill="white"/>
<path d="M155.599 104.45L144.717 123.826V136.215H138.505V123.826L127.667 104.45H134.742L141.634 117.701L148.526 104.45H155.599Z" fill="white"/>
<path d="M177.679 130.725C180.581 130.725 183.03 129.772 184.98 127.821C186.93 125.87 187.926 123.374 187.926 120.333C187.926 117.293 186.93 114.798 184.98 112.846C183.03 110.894 180.581 109.897 177.679 109.897C174.778 109.897 172.329 110.894 170.378 112.846C168.429 114.798 167.432 117.293 167.432 120.333C167.432 123.374 168.429 125.87 170.378 127.821C172.329 129.772 174.778 130.725 177.679 130.725ZM177.679 136.851C173.099 136.851 169.2 135.263 165.98 132.087C162.806 128.865 161.219 124.962 161.219 120.333C161.219 115.705 162.806 111.802 165.98 108.626C169.2 105.404 173.099 103.816 177.679 103.816C182.259 103.816 186.158 105.404 189.377 108.626C192.598 111.802 194.185 115.705 194.185 120.333C194.185 124.962 192.598 128.865 189.377 132.087C186.158 135.263 182.259 136.851 177.679 136.851Z" fill="white"/>
<path d="M211.184 130.226H223.291V136.216H204.926V104.45H211.184V130.226Z" fill="white"/>
<path d="M246.233 130.725C249.134 130.725 251.583 129.772 253.533 127.821C255.482 125.87 256.48 123.374 256.48 120.333C256.48 117.293 255.482 114.798 253.533 112.846C251.583 110.894 249.134 109.897 246.233 109.897C243.331 109.897 240.882 110.894 238.932 112.846C236.982 114.798 235.985 117.293 235.985 120.333C235.985 123.374 236.982 125.87 238.932 127.821C240.882 129.772 243.331 130.725 246.233 130.725ZM246.233 136.851C241.652 136.851 237.753 135.263 234.533 132.087C231.359 128.865 229.772 124.962 229.772 120.333C229.772 115.705 231.359 111.802 234.533 108.626C237.753 105.404 241.652 103.816 246.233 103.816C250.812 103.816 254.711 105.404 257.93 108.626C261.151 111.802 262.737 115.705 262.737 120.333C262.737 124.962 261.151 128.865 257.93 132.087C254.711 135.263 250.812 136.851 246.233 136.851Z" fill="white"/>
</g>
<defs>
<clipPath id="clip0_29_337">
<rect width="512" height="137" fill="white"/>
</clipPath>
</defs>
</svg>
