<svg width="512" height="137" viewBox="0 0 512 137" fill="none" xmlns="http://www.w3.org/2000/svg">
<g clip-path="url(#clip0_932_643)">
<mask id="mask0_932_643" style="mask-type:luminance" maskUnits="userSpaceOnUse" x="0" y="0" width="512" height="137">
<path d="M512 0H0V137H512V0Z" fill="white"/>
</mask>
<g mask="url(#mask0_932_643)">
<path d="M25.0385 0.000732422C11.2323 0.000732422 0 11.2417 0 25.0593C0 38.8754 11.2323 50.1172 25.0385 50.1172C38.8455 50.1172 50.077 38.8754 50.077 25.0593C50.077 11.2417 38.8455 0.000732422 25.0385 0.000732422Z" fill="white"/>
<path d="M53.366 78.4676C44.3464 78.4676 35.8243 76.1828 28.3438 72.1695V83.5382C28.3438 97.3342 39.351 108.781 53.1355 108.914C67.0546 109.049 78.4215 97.7568 78.4215 83.8579V72.1594C70.9333 76.182 62.3971 78.4676 53.366 78.4676Z" fill="white"/>
<path d="M56.6424 25.0615C56.617 42.4934 42.4772 56.6496 24.9967 56.6915C18.2534 56.7086 11.9256 54.6075 6.76172 50.9398C15.9145 67.3127 33.3786 78.4771 53.3474 78.4391C82.3554 78.4632 106.291 54.8288 106.773 25.8405L106.704 25.7785C106.733 25.0562 106.698 25.6478 106.733 25.0562C106.746 11.229 95.4963 -0.0564679 81.7483 -0.00888328C67.8698 0.045379 56.6558 11.2343 56.6424 25.0615Z" fill="white"/>
<path d="M171.466 63.3505C171.466 77.5133 161.259 83.3649 150.865 83.3649C140.424 83.3649 130.262 77.5133 130.262 63.3505V37.7183H140.007V62.4681C140.007 71.0589 144.786 74.2168 150.865 74.2168C156.943 74.2168 161.722 71.0589 161.722 62.4681V37.7183H171.466V63.3505Z" fill="white"/>
<path d="M190.765 22.7651H180.742V82.2038H190.765V22.7651Z" fill="white"/>
<path d="M221.181 45.4259H209.674V67.7151C209.674 73.6587 213.572 73.5666 221.181 73.1951V82.2038C205.869 84.0606 199.652 79.8817 199.652 67.7151V22.7651H209.674V35.7677H221.181V45.4259Z" fill="white"/>
<path d="M321.414 22.7651H311.391V82.2038H321.414V22.7651Z" fill="white"/>
<path d="M400.507 45.4259H388.999V67.7151C388.999 73.6587 392.897 73.5666 400.507 73.1951V82.2038C385.195 84.0606 378.977 79.8817 378.977 67.7151V22.7651H388.999V35.7677H400.507V45.4259Z" fill="white"/>
<path d="M407.884 40.9065H417.907V82.2039H407.884V40.9065ZM408.348 32.0828C405.842 29.4828 405.842 25.5818 408.348 23.0748C410.854 20.4741 414.937 20.4741 417.443 23.0748C419.949 25.5818 419.949 29.4828 417.351 32.0828C414.845 34.5905 410.947 34.5905 408.348 32.0828Z" fill="white"/>
<path d="M363.141 35.7678H373.813L355.995 83.6899C350.561 98.0354 346.438 100.778 333.263 100.778L333.352 91.3983C339.663 91.769 343.189 88.7047 345.694 82.2967L346.158 81.3671L326.484 35.7678H337.435L351.262 69.4798L363.141 35.7678Z" fill="white"/>
<path d="M432.136 76.3531C427.496 71.6161 425.176 65.8582 425.176 58.9858C425.176 52.0205 427.496 46.2618 432.136 41.6185C436.869 36.8824 442.716 34.5603 449.676 34.5603C458.677 34.5603 466.658 39.2044 470.371 46.5405L461.739 51.5561C459.606 47.0985 455.151 44.405 449.583 44.405C445.499 44.405 442.066 45.7982 439.283 48.5839C436.591 51.3695 435.199 54.8069 435.199 58.9858C435.199 63.1647 436.591 66.6013 439.283 69.3877C442.066 72.1734 445.499 73.5666 449.583 73.5666C455.058 73.5666 459.698 70.7802 461.926 66.4155L470.556 71.3375C466.565 78.768 458.677 83.4113 449.676 83.4113C442.716 83.4113 436.869 81.0892 432.136 76.3531Z" fill="white"/>
<path d="M495.365 54.6204C502.51 56.1994 511.791 59.1716 511.605 69.1091C511.605 73.5666 509.842 77.0961 506.408 79.6031C502.975 82.1102 498.706 83.4113 493.509 83.4113C484.322 83.4113 477.547 79.3245 474.578 72.5449L483.208 67.5293C484.786 71.9876 488.219 74.2168 493.509 74.2168C498.799 74.2168 501.398 72.452 501.398 69.0154C501.398 66.044 497.5 64.2793 492.581 63.0718C485.621 61.3071 476.248 58.5214 476.434 48.7696C476.434 44.4971 478.012 41.0612 481.259 38.4613C484.507 35.8607 488.591 34.5603 493.416 34.5603C501.118 34.5603 507.337 38.1827 510.584 44.2184L502.139 48.9554C500.561 45.4259 497.592 43.6619 493.416 43.6619C489.611 43.6619 486.642 45.3338 486.642 48.5839C486.642 51.6482 490.54 53.2279 495.365 54.6204Z" fill="white"/>
<path d="M279.189 73.8453C283.365 73.8453 286.891 72.4521 289.676 69.6664C292.459 66.7863 293.851 63.2576 293.851 58.9858C293.851 54.7133 292.459 51.1838 289.676 48.3981C286.891 45.5188 283.365 44.1263 279.189 44.1263C275.013 44.1263 271.487 45.5188 268.702 48.3981C265.919 51.1838 264.527 54.7133 264.527 58.9858C264.527 63.2576 265.919 66.7863 268.702 69.6664C271.487 72.4521 275.013 73.8453 279.189 73.8453ZM293.851 35.7678H303.874V82.2038H293.851V75.5172C290.047 80.8106 284.664 83.4105 277.611 83.4105C271.208 83.4105 265.826 81.0885 261.278 76.3531C256.731 71.6161 254.504 65.7646 254.504 58.9858C254.504 52.1134 256.731 46.3547 261.278 41.6186C265.826 36.8816 271.208 34.5596 277.611 34.5596C284.664 34.5596 290.047 37.161 293.851 42.3616V35.7678Z" fill="white"/>
<path d="M238.307 44.1859C240.747 38.5789 245.446 35.7747 252.225 35.7747V46.357C248.519 46.0853 245.266 46.9893 242.464 49.0699C239.663 51.0591 238.307 54.4051 238.307 59.0182V81.809H228.547V36.5889H238.307V44.1859Z" fill="white"/>
<path d="M155.596 104.451L144.713 123.827V136.216H138.502V123.827L127.664 104.451H134.738L141.63 117.702L148.523 104.451H155.596Z" fill="white"/>
<path d="M177.679 130.725C180.581 130.725 183.03 129.772 184.979 127.821C186.93 125.87 187.926 123.374 187.926 120.333C187.926 117.293 186.93 114.797 184.979 112.846C183.03 110.894 180.581 109.896 177.679 109.896C174.777 109.896 172.329 110.894 170.378 112.846C168.428 114.797 167.431 117.293 167.431 120.333C167.431 123.374 168.428 125.87 170.378 127.821C172.329 129.772 174.777 130.725 177.679 130.725ZM177.679 136.851C173.099 136.851 169.199 135.263 165.98 132.087C162.806 128.865 161.219 124.962 161.219 120.333C161.219 115.705 162.806 111.802 165.98 108.626C169.199 105.404 173.099 103.816 177.679 103.816C182.259 103.816 186.158 105.404 189.377 108.626C192.598 111.802 194.185 115.705 194.185 120.333C194.185 124.962 192.598 128.865 189.377 132.087C186.158 135.263 182.259 136.851 177.679 136.851Z" fill="white"/>
<path d="M211.184 130.227H223.291V136.217H204.926V104.451H211.184V130.227Z" fill="white"/>
<path d="M246.231 130.725C249.133 130.725 251.581 129.772 253.531 127.821C255.48 125.87 256.478 123.374 256.478 120.333C256.478 117.293 255.48 114.797 253.531 112.846C251.581 110.894 249.133 109.896 246.231 109.896C243.329 109.896 240.881 110.894 238.93 112.846C236.98 114.797 235.983 117.293 235.983 120.333C235.983 123.374 236.98 125.87 238.93 127.821C240.881 129.772 243.329 130.725 246.231 130.725ZM246.231 136.851C241.651 136.851 237.751 135.263 234.532 132.087C231.357 128.865 229.77 124.962 229.77 120.333C229.77 115.705 231.357 111.802 234.532 108.626C237.751 105.404 241.651 103.816 246.231 103.816C250.81 103.816 254.71 105.404 257.929 108.626C261.149 111.802 262.736 115.705 262.736 120.333C262.736 124.962 261.149 128.865 257.929 132.087C254.71 135.263 250.81 136.851 246.231 136.851Z" fill="white"/>
<path d="M274.59 110.694V105H285.227V137.175H278.871V110.694H274.59Z" fill="white"/>
<path d="M292.863 110.694V105H303.5V137.175H297.144V110.694H292.863Z" fill="white"/>
</g>
</g>
<defs>
<clipPath id="clip0_932_643">
<rect width="512" height="137" fill="white"/>
</clipPath>
</defs>
</svg>
