<svg width="512" height="137" viewBox="0 0 512 137" fill="none" xmlns="http://www.w3.org/2000/svg">
<g clip-path="url(#clip0_29_186)">
<path fill-rule="evenodd" clip-rule="evenodd" d="M330.24 136.446H258.498C249.697 136.446 242.566 129.309 242.566 120.503C242.566 111.697 249.697 104.56 258.498 104.56H330.24C339.034 104.56 346.172 111.697 346.172 120.503C346.172 129.309 339.034 136.446 330.24 136.446ZM307.68 114.211H297.594V117.535H300.92V127.661H304.354V117.535H307.68V114.211ZM272.992 123.723C272.992 122.377 272.435 121.377 271.298 120.705C272.126 120.052 272.551 119.168 272.551 118.034C272.551 115.671 270.803 114.211 268.112 114.211H262.814V127.661H268.475C269.844 127.661 270.935 127.296 271.762 126.585C272.59 125.874 272.992 124.914 272.992 123.723ZM266.248 117.284H268.019C268.653 117.284 269.109 117.707 269.109 118.342C269.109 119.014 268.63 119.399 268.019 119.399H266.248V117.284ZM268.382 124.586H266.248V122.319H268.382C269.071 122.319 269.55 122.761 269.55 123.453C269.55 124.125 269.071 124.586 268.382 124.586ZM284.717 124.433V122.454H289.342V119.284H284.717V117.419H289.821V114.211H281.283V127.661H289.922V124.433H284.717ZM323.07 127.661H326.775L322.343 114.21H318.151L313.72 127.661H317.44L318.02 125.719H322.498L323.07 127.661ZM318.902 122.761L320.248 118.188L321.609 122.761H318.902Z" fill="white"/>
<path d="M171.133 63.4039C171.133 77.5783 160.916 83.4353 150.514 83.4353C140.065 83.4353 129.895 77.5783 129.895 63.4039V37.7493H139.647V62.5207C139.647 71.1192 144.43 74.2787 150.514 74.2787C156.598 74.2787 161.381 71.1192 161.381 62.5207V37.7493H171.133V63.4039Z" fill="white"/>
<path d="M190.451 22.7847H180.42V82.2736H190.451V22.7847Z" fill="white"/>
<path d="M220.893 45.4638H209.375V67.7723C209.375 73.7214 213.276 73.6285 220.893 73.2562V82.2726C205.568 84.1318 199.345 79.9491 199.345 67.7723V22.7837H209.375V35.7971H220.893V45.4638Z" fill="white"/>
<path d="M321.207 22.7847H311.175V82.2736H321.207V22.7847Z" fill="white"/>
<path d="M400.365 45.4638H388.848V67.7723C388.848 73.7214 392.749 73.6285 400.365 73.2562V82.2726C385.04 84.1318 378.817 79.9491 378.817 67.7723V22.7837H388.848V35.7971H400.365V45.4638Z" fill="white"/>
<path d="M407.751 40.9404H417.783V82.2727H407.751V40.9404ZM408.215 32.1097C405.71 29.5075 405.71 25.6027 408.215 23.0941C410.721 20.4911 414.813 20.4911 417.319 23.0941C419.824 25.6027 419.824 29.5075 417.226 32.1097C414.72 34.6191 410.814 34.6191 408.215 32.1097Z" fill="white"/>
<path d="M362.971 35.7981H373.652L355.819 83.7605C350.38 98.1184 346.253 100.864 333.067 100.864L333.156 91.4758C339.472 91.8474 343.002 88.7799 345.509 82.3665L345.973 81.4369L326.283 35.7981H337.243L351.082 69.5388L362.971 35.7981Z" fill="white"/>
<path d="M432.029 76.4175C427.385 71.6766 425.064 65.9141 425.064 59.0355C425.064 52.064 427.385 46.3007 432.029 41.6535C436.766 36.9127 442.618 34.5891 449.583 34.5891C458.593 34.5891 466.58 39.237 470.296 46.5801L461.658 51.5996C459.522 47.1374 455.063 44.4423 449.49 44.4423C445.404 44.4423 441.967 45.8363 439.181 48.625C436.487 51.413 435.094 54.8527 435.094 59.0355C435.094 63.2182 436.487 66.6572 439.181 69.4459C441.967 72.2339 445.404 73.6287 449.49 73.6287C454.97 73.6287 459.614 70.8399 461.843 66.4714L470.482 71.398C466.488 78.8339 458.593 83.4811 449.583 83.4811C442.618 83.4811 436.766 81.1575 432.029 76.4175Z" fill="white"/>
<path d="M495.31 54.666C502.461 56.2465 511.749 59.221 511.564 69.1671C511.564 73.6285 509.799 77.1611 506.362 79.6697C502.926 82.1798 498.654 83.4809 493.453 83.4809C484.258 83.4809 477.477 79.3918 474.505 72.606L483.142 67.5866C484.722 72.048 488.158 74.2787 493.453 74.2787C498.747 74.2787 501.347 72.5124 501.347 69.0734C501.347 66.0989 497.446 64.3326 492.523 63.1244C485.558 61.3589 476.177 58.5701 476.363 48.8106C476.363 44.5342 477.941 41.0952 481.192 38.493C484.443 35.89 488.53 34.5881 493.359 34.5881C501.068 34.5881 507.291 38.2144 510.542 44.2555L502.09 48.9964C500.511 45.4638 497.539 43.6982 493.359 43.6982C489.552 43.6982 486.579 45.3709 486.579 48.6248C486.579 51.6915 490.48 53.272 495.31 54.666Z" fill="white"/>
<path d="M278.95 73.9071C283.129 73.9071 286.659 72.5124 289.446 69.7244C292.231 66.8427 293.624 63.3101 293.624 59.0353C293.624 54.7589 292.231 51.2271 289.446 48.4383C286.659 45.5566 283.129 44.1627 278.95 44.1627C274.77 44.1627 271.24 45.5566 268.454 48.4383C265.668 51.2271 264.275 54.7589 264.275 59.0353C264.275 63.3101 265.668 66.8427 268.454 69.7244C271.24 72.5124 274.77 73.9071 278.95 73.9071ZM293.624 35.7971H303.655V82.2726H293.624V75.5798C289.816 80.8787 284.429 83.4809 277.371 83.4809C270.962 83.4809 265.575 81.1565 261.024 76.4173C256.473 71.6764 254.244 65.8203 254.244 59.0353C254.244 52.1566 256.473 46.3934 261.024 41.6533C265.575 36.9125 270.962 34.5881 277.371 34.5881C284.429 34.5881 289.816 37.1911 293.624 42.3964V35.7971Z" fill="white"/>
<path d="M238.034 44.2231C240.476 38.6115 245.179 35.8049 251.963 35.8049V46.3957C248.254 46.124 244.998 47.0289 242.194 49.111C239.39 51.1025 238.034 54.4516 238.034 59.0678V81.878H228.265V36.62H238.034V44.2231Z" fill="white"/>
<path d="M81.7647 109.007C95.5825 109.007 106.824 97.7561 106.824 83.9277C106.824 70.0992 95.5825 58.8481 81.7647 58.8481C67.9461 58.8481 56.7045 70.0992 56.7045 83.9277C56.7045 97.7561 67.9461 109.007 81.7647 109.007Z" fill="white"/>
<path d="M53.411 30.4736C52.3043 30.4736 51.2083 30.5193 50.1178 30.5866V25.0787C50.1178 11.2503 38.877 0 25.0584 0C11.2399 0 -0.00170898 11.2503 -0.00170898 25.0787V83.9276C-0.00170898 97.7569 11.2399 109.007 25.0577 109.007C38.8763 109.007 50.1178 97.7569 50.1178 83.9276V83.9268C50.1178 66.4644 64.3138 52.2574 81.7636 52.2574C88.6037 52.2574 94.9116 54.3758 100.066 58.0067C90.9015 41.6147 73.362 30.4736 53.411 30.4736Z" fill="white"/>
<path d="M147.904 104.511H154.116V136.276H147.904V123.117H136.114V136.276H129.856V104.511H136.114V117.127H147.904V104.511Z" fill="white"/>
<path d="M169.484 133.917C167.217 131.92 166.083 129.243 166.083 125.885V104.511H172.296V125.386C172.296 128.699 174.155 130.785 178.191 130.785C182.226 130.785 184.086 128.699 184.086 125.386V104.511H190.343V125.885C190.343 129.243 189.209 131.92 186.942 133.917C184.675 135.913 181.773 136.912 178.191 136.912C174.653 136.912 171.751 135.913 169.484 133.917Z" fill="white"/>
<path d="M215.777 130.423C217.908 130.423 219.45 128.834 219.45 126.656C219.45 124.523 217.908 122.935 215.777 122.935H208.567V130.423H215.777ZM208.567 110.365V117.353H214.825C216.775 117.353 218.226 115.856 218.226 113.859C218.226 111.863 216.819 110.365 214.825 110.365H208.567ZM225.662 127.065C225.662 129.742 224.71 131.966 222.806 133.69C220.901 135.414 218.543 136.276 215.777 136.276H202.309V104.511H214.825C217.545 104.511 219.813 105.373 221.672 107.053C223.531 108.732 224.483 110.864 224.483 113.451C224.483 116.083 223.486 118.216 221.49 119.804C224.257 121.392 225.662 123.843 225.662 127.065Z" fill="white"/>
</g>
<defs>
<clipPath id="clip0_29_186">
<rect width="512" height="137" fill="white"/>
</clipPath>
</defs>
</svg>
