<svg width="512" height="137" viewBox="0 0 512 137" fill="none" xmlns="http://www.w3.org/2000/svg">
<g clip-path="url(#clip0_29_523)">
<path d="M171.465 63.3497C171.465 77.5125 161.258 83.3641 150.864 83.3641C140.423 83.3641 130.261 77.5125 130.261 63.3497V37.7175H140.006V62.4673C140.006 71.0581 144.785 74.216 150.864 74.216C156.942 74.216 161.721 71.0581 161.721 62.4673V37.7175H171.465V63.3497Z" fill="#0B23A9"/>
<path d="M190.766 22.7644H180.743V82.2023H190.766V22.7644Z" fill="#0B23A9"/>
<path d="M221.182 45.4251H209.675V67.7143C209.675 73.658 213.573 73.5659 221.182 73.1943V82.2031C205.87 84.0599 199.653 79.881 199.653 67.7143V22.7644H209.675V35.767H221.182V45.4251Z" fill="#0B23A9"/>
<path d="M321.413 22.7644H311.39V82.2023H321.413V22.7644Z" fill="#0B23A9"/>
<path d="M400.503 45.4251H388.995V67.7143C388.995 73.658 392.893 73.5659 400.503 73.1943V82.2031C385.191 84.0599 378.974 79.881 378.974 67.7143V22.7644H388.995V35.767H400.503V45.4251Z" fill="#0B23A9"/>
<path d="M407.881 40.9048H417.905V82.2022H407.881V40.9048ZM408.345 32.0818C405.84 29.4819 405.84 25.5801 408.345 23.0739C410.851 20.4724 414.935 20.4724 417.441 23.0739C419.947 25.5801 419.947 29.4819 417.348 32.0818C414.842 34.5896 410.944 34.5896 408.345 32.0818Z" fill="#0B23A9"/>
<path d="M363.139 35.7668H373.812L355.994 83.689C350.559 98.0345 346.436 100.777 333.261 100.777L333.351 91.3974C339.661 91.7681 343.188 88.7038 345.693 82.2958L346.157 81.3662L326.484 35.7668H337.434L351.261 69.4789L363.139 35.7668Z" fill="#0B23A9"/>
<path d="M432.136 76.3516C427.496 71.6146 425.176 65.8568 425.176 58.9843C425.176 52.019 427.496 46.2603 432.136 41.617C436.869 36.8809 442.715 34.5588 449.675 34.5588C458.677 34.5588 466.658 39.2029 470.37 46.539L461.739 51.5546C459.604 47.097 455.15 44.4035 449.582 44.4035C445.499 44.4035 442.066 45.7959 439.281 48.5824C436.59 51.368 435.198 54.8054 435.198 58.9843C435.198 63.1632 436.59 66.5998 439.281 69.3862C442.066 72.1719 445.499 73.5651 449.582 73.5651C455.057 73.5651 459.698 70.7787 461.925 66.414L470.555 71.336C466.565 78.7657 458.677 83.4098 449.675 83.4098C442.715 83.4098 436.869 81.0878 432.136 76.3516Z" fill="#0B23A9"/>
<path d="M495.37 54.6196C502.516 56.1986 511.796 59.1708 511.61 69.1083C511.61 73.5659 509.848 77.0954 506.414 79.6024C502.98 82.1102 498.711 83.4105 493.515 83.4105C484.327 83.4105 477.552 79.3245 474.583 72.5442L483.214 67.5294C484.791 71.9869 488.224 74.216 493.515 74.216C498.804 74.216 501.403 72.4513 501.403 69.0147C501.403 66.0433 497.505 64.2785 492.587 63.071C485.626 61.3063 476.254 58.5206 476.439 48.7689C476.439 44.4963 478.017 41.0605 481.265 38.4606C484.512 35.8599 488.596 34.5596 493.421 34.5596C501.123 34.5596 507.342 38.1819 510.589 44.2177L502.144 48.9546C500.567 45.4251 497.597 43.6612 493.421 43.6612C489.617 43.6612 486.647 45.333 486.647 48.5831C486.647 51.6474 490.545 53.2272 495.37 54.6196Z" fill="#0B23A9"/>
<path d="M279.19 73.8446C283.366 73.8446 286.892 72.4513 289.677 69.6657C292.46 66.7856 293.852 63.2569 293.852 58.9851C293.852 54.7125 292.46 51.1831 289.677 48.3974C286.892 45.5181 283.366 44.1256 279.19 44.1256C275.014 44.1256 271.488 45.5181 268.703 48.3974C265.92 51.1831 264.528 54.7125 264.528 58.9851C264.528 63.2569 265.92 66.7856 268.703 69.6657C271.488 72.4513 275.014 73.8446 279.19 73.8446ZM293.852 35.7671H303.875V82.2031H293.852V75.5164C290.048 80.8099 284.665 83.4098 277.612 83.4098C271.209 83.4098 265.827 81.0878 261.279 76.3524C256.732 71.6154 254.505 65.7639 254.505 58.9851C254.505 52.1126 256.732 46.354 261.279 41.6178C265.827 36.8809 271.209 34.5588 277.612 34.5588C284.665 34.5588 290.048 37.1603 293.852 42.3609V35.7671Z" fill="#0B23A9"/>
<path d="M238.308 44.1844C240.748 38.5774 245.448 35.7732 252.226 35.7732V46.3555C248.52 46.0838 245.267 46.9878 242.465 49.0684C239.664 51.0576 238.308 54.4036 238.308 59.0168V81.8075H228.548V36.5875H238.308V44.1844Z" fill="#0B23A9"/>
<path d="M25.0385 0C11.2323 0 2.2543e-05 11.241 2.2543e-05 25.0586C2.2543e-05 38.8747 11.2323 50.1165 25.0385 50.1165C38.8455 50.1165 50.077 38.8747 50.077 25.0586C50.077 11.241 38.8455 0 25.0385 0Z" fill="#0B23A9"/>
<path d="M53.3671 78.4661C44.3476 78.4661 35.8253 76.1813 28.3448 72.168V83.5367C28.3448 97.3327 39.3521 108.78 53.1366 108.913C67.0558 109.047 78.4226 97.7553 78.4226 83.8564V72.158C70.9344 76.1805 62.3983 78.4661 53.3671 78.4661Z" fill="#0B23A9"/>
<path d="M56.6432 25.0607C56.6178 42.4926 42.478 56.6489 24.9975 56.6907C18.2542 56.7078 11.9264 54.6068 6.76252 50.9391C15.9153 67.312 33.3794 78.4764 53.3482 78.4384C82.3562 78.4625 106.291 54.828 106.774 25.8398L106.705 25.7777C106.734 25.0555 106.698 25.647 106.734 25.0555C106.747 11.2283 95.4971 -0.0572361 81.7491 -0.00965152C67.8706 0.0446108 56.6566 11.2336 56.6432 25.0607Z" fill="url(#paint0_linear_29_523)"/>
<path d="M155.598 104.449L144.715 123.825V136.214H138.504V123.825L127.666 104.449H134.74L141.632 117.7L148.525 104.449H155.598Z" fill="#00A2F3"/>
<path d="M177.678 130.724C180.58 130.724 183.028 129.771 184.978 127.82C186.929 125.869 187.925 123.373 187.925 120.332C187.925 117.292 186.929 114.797 184.978 112.845C183.028 110.893 180.58 109.896 177.678 109.896C174.776 109.896 172.327 110.893 170.377 112.845C168.428 114.797 167.43 117.292 167.43 120.332C167.43 123.373 168.428 125.869 170.377 127.82C172.327 129.771 174.776 130.724 177.678 130.724ZM177.678 136.851C173.098 136.851 169.198 135.262 165.978 132.086C162.804 128.864 161.217 124.961 161.217 120.332C161.217 115.704 162.804 111.801 165.978 108.625C169.198 105.403 173.098 103.815 177.678 103.815C182.257 103.815 186.157 105.403 189.376 108.625C192.596 111.801 194.183 115.704 194.183 120.332C194.183 124.961 192.596 128.864 189.376 132.086C186.157 135.262 182.257 136.851 177.678 136.851Z" fill="#00A2F3"/>
<path d="M211.182 130.225H223.289V136.215H204.925V104.449H211.182V130.225Z" fill="#00A2F3"/>
<path d="M246.231 130.724C249.133 130.724 251.581 129.771 253.531 127.82C255.48 125.869 256.478 123.373 256.478 120.332C256.478 117.292 255.48 114.797 253.531 112.845C251.581 110.893 249.133 109.896 246.231 109.896C243.329 109.896 240.88 110.893 238.93 112.845C236.98 114.797 235.983 117.292 235.983 120.332C235.983 123.373 236.98 125.869 238.93 127.82C240.88 129.771 243.329 130.724 246.231 130.724ZM246.231 136.851C241.651 136.851 237.751 135.262 234.532 132.086C231.357 128.864 229.77 124.961 229.77 120.332C229.77 115.704 231.357 111.801 234.532 108.625C237.751 105.403 241.651 103.815 246.231 103.815C250.81 103.815 254.71 105.403 257.929 108.625C261.149 111.801 262.736 115.704 262.736 120.332C262.736 124.961 261.149 128.864 257.929 132.086C254.71 135.262 250.81 136.851 246.231 136.851Z" fill="#00A2F3"/>
<path d="M288.126 113.526H294.565L285.95 136.215H279.284L270.668 113.526H277.107L282.594 129.408L288.126 113.526Z" fill="#00A2F3"/>
<path d="M313.742 116.021C316.779 116.021 319.363 116.928 321.45 118.789C323.535 120.604 324.578 123.146 324.578 126.413C324.578 129.68 323.49 132.221 321.268 134.082C319.091 135.942 316.417 136.85 313.242 136.85C308.119 136.85 303.947 134.535 302.178 130.043L307.529 126.912C308.3 129.453 310.204 130.723 313.242 130.723C316.462 130.723 318.321 129.09 318.321 126.413C318.321 123.826 316.462 122.102 313.424 122.102H303.811L305.081 104.449H323.082V110.303H310.885L310.476 116.021H313.742Z" fill="#00A2F3"/>
</g>
<defs>
<linearGradient id="paint0_linear_29_523" x1="30.285" y1="77.551" x2="92.3039" y2="8.90235" gradientUnits="userSpaceOnUse">
<stop stop-color="#00DEF3"/>
<stop offset="1" stop-color="#0B23A9"/>
</linearGradient>
<clipPath id="clip0_29_523">
<rect width="512" height="137" fill="white"/>
</clipPath>
</defs>
</svg>
